# xmcd CD database file
#
# Track frame offsets:
#	150
#	17462
#	29939
#	36258
#	53206
#	58555
#	70360
#	81877
#	115364
#	121941
#	134750
#
# Disc length: 2055 seconds
#
# Revision: 0
# Processed by: cddbd v1.5PL3 Copyright (c) Steve Scherf et al.
# Submitted via: CDex 1.50
#
DISCID=a108050b
DTITLE=Rod Bredin - Boogie Improv
DYEAR=2002
DGENRE=Blues
TTITLE0=Willoughby's Duet
TTITLE1=A Little Bit Honky
TTITLE2=Walking Along
TTITLE3=Slow and Easy
TTITLE4=Roll Em Now
TTITLE5=Get Em Going
TTITLE6=Just Walking
TTITLE7=Long Boogie
TTITLE8=Walking Fast
TTITLE9=Deep Down Boogie
TTITLE10=All Around Boogie
EXTD=YEAR: 2002
EXTT0=
EXTT1=
EXTT2=
EXTT3=
EXTT4=
EXTT5=
EXTT6=
EXTT7=
EXTT8=
EXTT9=
EXTT10=
PLAYORDER=
